# xmcd CD database file
#
# Track frame offsets:
#	150
#	11147
#	22430
#	35575
#	46730
#	57527
#	69762
#	79852
#	90237
#	101217
#	111392
#	123287
#	134162
#	145375
#	155910
#	167750
#	183840
#	196282
#	205792
#	216612
#	226877
#	238972
#	248645
#	264160
#	276130
#
# Disc length: 3836 seconds
#
# Revision: 0
# Processed by: cddbd v1.5.1PL2 Copyright (c) Steve Scherf et al.
# Submitted via: CD2WAV32(JP) R3.22
#
DISCID=770efa19
DTITLE=Osborne Brothers - Bluegrass Melodies
DYEAR=1990
DGENRE=Bluegrass
TTITLE0=01 Take This Hammer
TTITLE1=02 Cuckoo Bird
TTITLE2=03 Pathway of Teardrops
TTITLE3=04 Big Spike Hammer
TTITLE4=05 Up This Hill and Down
TTITLE5=06 Making Plans
TTITLE6=07 I Know What It Means to Be Lonesome
TTITLE7=08 I'll Be Alright Tomorrow
TTITLE8=09 Sure-Fire
TTITLE9=10 Will You Be Loving Another Man
TTITLE10=11 Molly and Tenbrooks
TTITLE11=12 I'll Never Shed Another Tear
TTITLE12=13 My Little Girl in Tennessee
TTITLE13=14 I'll Go Steppin' Too
TTITLE14=15 Rocky Top
TTITLE15=16 Siempre
TTITLE16=17 Listening to the Rain
TTITLE17=18 Flyin' South
TTITLE18=19 One Tear
TTITLE19=20 Midnight Flyer
TTITLE20=21 Fastest Grass Alive
TTITLE21=22 Blue Heartache
TTITLE22=23 Bluegrass Melodies
TTITLE23=24 Grandpa John
TTITLE24=25 Sledd Ridin'
EXTD=
EXTT0=
EXTT1=
EXTT2=
EXTT3=
EXTT4=
EXTT5=
EXTT6=
EXTT7=
EXTT8=
EXTT9=
EXTT10=
EXTT11=
EXTT12=
EXTT13=
EXTT14=
EXTT15=
EXTT16=
EXTT17=
EXTT18=
EXTT19=
EXTT20=
EXTT21=
EXTT22=
EXTT23=
EXTT24=
PLAYORDER=
